<svg width="24" xmlns="http://www.w3.org/2000/svg" height="24" id="screenshot-69a7e46f-5b19-8079-8007-19ba77283bc1" viewBox="3810 2872 24 24" style="-webkit-print-color-adjust::exact" xmlns:xlink="http://www.w3.org/1999/xlink" fill="none" version="1.1">
  <g id="shape-69a7e46f-5b19-8079-8007-19ba77283bc1">
    <defs>
      <clipPath id="frame-clip-69a7e46f-5b19-8079-8007-19ba77283bc1-render-11970" class="frame-clip frame-clip-def">
        <rect rx="0" ry="0" x="3810" y="2872" width="24" height="24" transform="matrix(1.000000, 0.000000, 0.000000, 1.000000, 0.000000, 0.000000)">
        </rect>
      </clipPath>
    </defs>
    <g class="frame-container-wrapper" opacity="1">
      <g class="frame-container-blur">
        <g class="frame-container-shadows">
          <g clip-path="url(#frame-clip-69a7e46f-5b19-8079-8007-19ba77283bc1-render-11970)" fill="none">
            <g class="fills" id="fills-69a7e46f-5b19-8079-8007-19ba77283bc1">
              <rect rx="0" ry="0" x="3810" y="2872" width="24" height="24" transform="matrix(1.000000, 0.000000, 0.000000, 1.000000, 0.000000, 0.000000)" class="frame-background" style="fill:#ffffff;fill-opacity:0">
              </rect>
            </g>
            <g class="frame-children">
              <g id="shape-69a7e46f-5b19-8079-8007-19ba77287ef2" style="opacity:1">
                <defs>
                  <linearGradient id="fill-color-gradient-render-11971-0" x1="0.49999999999999994" y1="-3.0616171314629196e-17" x2="0.49999999999999994" y2="0.9999999999999999" gradientTransform="">
                    <stop offset="0" stop-color="#ffbf00" stop-opacity="1">
                    </stop>
                    <stop offset="1" stop-color="#f2a50c" stop-opacity="1">
                    </stop>
                  </linearGradient>
                  <pattern patternUnits="userSpaceOnUse" x="3810" y="2873" width="24" height="22" patternTransform="matrix(1.000000, 0.000000, 0.000000, 1.000000, 0.000000, 0.000000)" id="fill-0-render-11971">
                    <g>
                      <rect width="24" height="22" style="fill:url(#fill-color-gradient-render-11971-0);fill-opacity:1">
                      </rect>
                    </g>
                  </pattern>
                </defs>
                <g class="fills" id="fills-69a7e46f-5b19-8079-8007-19ba77287ef2">
                  <path d="M3829,2879L3828.179931640625,2879L3826.47998046875,2874.320068359375C3826.33935546875,2873.93408203125,3826.08349609375,2873.6005859375,3825.747314453125,2873.364501953125C3825.4111328125,2873.128662109375,3825.0107421875,2873.001220703125,3824.60009765625,2873L3823,2873C3822.449951171875,2873,3822,2873.449951171875,3822,2874C3822,2874.550048828125,3822.449951171875,2875,3823,2875L3824.60009765625,2875L3826.06005859375,2879L3821.25,2879L3820.889892578125,2878L3820.97998046875,2878C3821.530029296875,2878,3821.97998046875,2877.550048828125,3821.97998046875,2877C3821.97998046875,2876.449951171875,3821.530029296875,2876,3820.97998046875,2876L3818,2876C3817.449951171875,2876,3817,2876.449951171875,3817,2877C3817,2877.550048828125,3817.449951171875,2878,3818,2878L3818.75,2878L3820.570068359375,2883L3819.89990234375,2883C3819.4599609375,2880.77001953125,3817.590087890625,2879.1201171875,3815.25,2879.010009765625C3812.449951171875,2878.8701171875,3810,2881.199951171875,3810,2884C3810,2886.800048828125,3812.199951171875,2889,3815,2889C3817.4599609375,2889,3819.449951171875,2887.31005859375,3819.89990234375,2885L3824.10009765625,2885C3824.5400390625,2887.22998046875,3826.409912109375,2888.8798828125,3828.75,2888.989990234375C3831.550048828125,2889.1201171875,3834,2886.800048828125,3834,2883.989990234375C3834,2881.199951171875,3831.800048828125,2879,3829,2879ZM3816,2885L3817.820068359375,2885C3817.39990234375,2886.22998046875,3816.219970703125,2887.080078125,3814.800048828125,2886.989990234375C3813.31005859375,2886.89990234375,3812.070068359375,2885.639892578125,3812,2884.139892578125C3811.929931640625,2882.389892578125,3813.27001953125,2881,3815,2881C3816.330078125,2881,3817.419921875,2881.830078125,3817.820068359375,2883L3816,2883C3815.449951171875,2883,3815,2883.449951171875,3815,2884C3815,2884.550048828125,3815.449951171875,2885,3816,2885ZM3824.10009765625,2883L3822.699951171875,2883L3821.969970703125,2881L3825,2881C3824.56005859375,2881.580078125,3824.239990234375,2882.25,3824.10009765625,2883ZM3828.8798828125,2887C3827.340087890625,2886.93994140625,3826.0400390625,2885.6298828125,3826,2884.080078125C3825.97998046875,2883.1201171875,3826.389892578125,2882.280029296875,3827.050048828125,2881.719970703125L3827.669921875,2883.419921875C3827.860107421875,2883.93994140625,3828.429931640625,2884.2099609375,3828.949951171875,2884.02001953125C3829.469970703125,2883.830078125,3829.739990234375,2883.260009765625,3829.550048828125,2882.739990234375L3828.919921875,2881.010009765625L3828.929931640625,2881C3829.3310546875,2880.986328125,3829.73046875,2881.053955078125,3830.1044921875,2881.198974609375C3830.478515625,2881.343994140625,3830.8193359375,2881.5634765625,3831.106201171875,2881.84375C3831.39306640625,2882.124267578125,3831.620361328125,2882.459716796875,3831.77392578125,2882.830322265625C3831.927490234375,2883.200927734375,3832.00439453125,2883.598876953125,3832,2884C3832,2885.719970703125,3830.6201171875,2887.06005859375,3828.8798828125,2887ZM3821,2892L3817,2892L3823,2895L3823,2893L3827,2893L3821,2890L3821,2892Z" fill="url(#fill-0-render-11971)" fill-rule="nonzero">
                  </path>
                </g>
              </g>
            </g>
          </g>
        </g>
      </g>
    </g>
  </g>
</svg>