<svg width="24" xmlns="http://www.w3.org/2000/svg" height="24" id="screenshot-69a7e46f-5b19-8079-8007-19ba77291345" viewBox="4110 2872 24 24" style="-webkit-print-color-adjust::exact" xmlns:xlink="http://www.w3.org/1999/xlink" fill="none" version="1.1">
  <g id="shape-69a7e46f-5b19-8079-8007-19ba77291345">
    <defs>
      <clipPath id="frame-clip-69a7e46f-5b19-8079-8007-19ba77291345-render-11972" class="frame-clip frame-clip-def">
        <rect rx="0" ry="0" x="4110" y="2872" width="24" height="24" transform="matrix(1.000000, 0.000000, 0.000000, 1.000000, 0.000000, 0.000000)">
        </rect>
      </clipPath>
    </defs>
    <g class="frame-container-wrapper" opacity="1">
      <g class="frame-container-blur">
        <g class="frame-container-shadows">
          <g clip-path="url(#frame-clip-69a7e46f-5b19-8079-8007-19ba77291345-render-11972)" fill="none">
            <g class="fills" id="fills-69a7e46f-5b19-8079-8007-19ba77291345">
              <rect rx="0" ry="0" x="4110" y="2872" width="24" height="24" transform="matrix(1.000000, 0.000000, 0.000000, 1.000000, 0.000000, 0.000000)" class="frame-background" style="fill:#ffffff;fill-opacity:0">
              </rect>
            </g>
            <g class="frame-children">
              <g id="shape-69a7e46f-5b19-8079-8007-19ba7729751a" style="opacity:1">
                <defs>
                  <linearGradient id="fill-color-gradient-render-11973-0" x1="0.49999999999999994" y1="-3.0616171314629196e-17" x2="0.49999999999999994" y2="0.9999999999999999" gradientTransform="">
                    <stop offset="0" stop-color="#ffbf00" stop-opacity="1">
                    </stop>
                    <stop offset="1" stop-color="#f2a50c" stop-opacity="1">
                    </stop>
                  </linearGradient>
                  <pattern patternUnits="userSpaceOnUse" x="4111" y="2873" width="22" height="22" patternTransform="matrix(1.000000, 0.000000, 0.000000, 1.000000, 0.000000, 0.000000)" id="fill-0-render-11973">
                    <g>
                      <rect width="22" height="22" style="fill:url(#fill-color-gradient-render-11973-0);fill-opacity:1">
                      </rect>
                    </g>
                  </pattern>
                </defs>
                <g class="fills" id="fills-69a7e46f-5b19-8079-8007-19ba7729751a">
                  <path d="M4122,2880C4119.7900390625,2880,4118,2881.7900390625,4118,2884C4118,2886.2099609375,4119.7900390625,2888,4122,2888C4124.2099609375,2888,4126,2886.2099609375,4126,2884C4126,2881.7900390625,4124.2099609375,2880,4122,2880ZM4130.93994140625,2883C4130.71337890625,2880.97216796875,4129.80419921875,2879.08154296875,4128.361328125,2877.638671875C4126.91845703125,2876.19580078125,4125.02783203125,2875.28662109375,4123,2875.06005859375L4123,2874C4123,2873.449951171875,4122.5498046875,2873,4122,2873C4121.4501953125,2873,4121,2873.449951171875,4121,2874L4121,2875.06005859375C4118.97216796875,2875.28662109375,4117.08154296875,2876.19580078125,4115.638671875,2877.638671875C4114.19580078125,2879.08154296875,4113.28662109375,2880.97216796875,4113.06005859375,2883L4112,2883C4111.4501953125,2883,4111,2883.449951171875,4111,2884C4111,2884.550048828125,4111.4501953125,2885,4112,2885L4113.06005859375,2885C4113.28662109375,2887.02783203125,4114.19580078125,2888.91845703125,4115.638671875,2890.361328125C4117.08154296875,2891.80419921875,4118.97216796875,2892.71337890625,4121,2892.93994140625L4121,2894C4121,2894.550048828125,4121.4501953125,2895,4122,2895C4122.5498046875,2895,4123,2894.550048828125,4123,2894L4123,2892.93994140625C4125.02783203125,2892.71337890625,4126.91845703125,2891.80419921875,4128.361328125,2890.361328125C4129.80419921875,2888.91845703125,4130.71337890625,2887.02783203125,4130.93994140625,2885L4132,2885C4132.5498046875,2885,4133,2884.550048828125,4133,2884C4133,2883.449951171875,4132.5498046875,2883,4132,2883L4130.93994140625,2883L4130.93994140625,2883ZM4122,2891C4118.1298828125,2891,4115,2887.8701171875,4115,2884C4115,2880.1298828125,4118.1298828125,2877,4122,2877C4125.8701171875,2877,4129,2880.1298828125,4129,2884C4129,2887.8701171875,4125.8701171875,2891,4122,2891Z" fill="url(#fill-0-render-11973)" fill-rule="nonzero">
                  </path>
                </g>
              </g>
            </g>
          </g>
        </g>
      </g>
    </g>
  </g>
</svg>